<svg width="15" height="16" viewBox="0 0 15 16" fill="none" xmlns="http://www.w3.org/2000/svg">
<path d="M7.62546 8C9.55466 8 11.1186 6.43442 11.1186 4.50317C11.1186 2.57193 9.55466 1.00635 7.62546 1.00635C5.69625 1.00635 4.13232 2.57193 4.13232 4.50317C4.13232 6.43442 5.69625 8 7.62546 8Z" stroke="black" stroke-width="0.999093"/>
<path d="M13.7634 14.4945C12.8398 11.1536 10.388 8.83424 7.62483 8.83424C4.86155 8.83424 2.4098 11.1537 1.48625 14.4945H13.7634ZM14.9997 15.4936H0.25C0.957988 11.0554 4.05996 7.83514 7.62483 7.83514C11.1896 7.83514 14.291 11.0554 14.9994 15.4921L14.9997 15.4936Z" fill="black"/>
</svg>
