<svg width="15" height="17" viewBox="0 0 15 17" fill="none" xmlns="http://www.w3.org/2000/svg">
<g clip-path="url(#clip0_1_446)">
<path d="M7.00574 0.25L7.30574 0.439814C8.15491 0.959374 9.05448 1.39182 9.99074 1.73055C10.9801 2.05185 11.9971 2.28094 13.0287 2.41488L13.3797 2.45684L13.4577 2.8015C13.4997 2.98732 14.4747 7.397 12.9377 10.6998C11.4007 14.0025 7.42874 16.0026 7.25974 16.0855L7.03374 16.1974L6.80874 16.0825C6.64574 15.9996 2.79174 13.9985 1.25474 10.6998C-0.282256 7.401 0.577744 2.99931 0.614744 2.81349L0.686744 2.45184L1.05374 2.41388C2.17118 2.29245 3.27429 2.06361 4.34774 1.73055C5.1989 1.4318 6.0002 1.00679 6.72474 0.469785L7.00574 0.25ZM12.5477 3.35696C11.5685 3.21311 10.6036 2.98481 9.66374 2.67463C8.76126 2.35149 7.89084 1.94513 7.06374 1.46081C6.32509 1.96932 5.52206 2.3775 4.67574 2.67463C3.65306 3.00069 2.60218 3.23079 1.53674 3.36195C1.37374 4.44389 1.00274 7.78962 2.16174 10.2772C3.35174 12.8317 6.21774 14.601 7.04074 15.0725C7.88174 14.6079 10.8407 12.8377 12.0307 10.2772C13.1947 7.78263 12.7347 4.41992 12.5477 3.35696Z" fill="black"/>
</g>
<defs>
<clipPath id="clip0_1_446">
<rect width="14" height="15.9375" fill="white" transform="translate(0.34375 0.25)"/>
</clipPath>
</defs>
</svg>
